<svg xmlns="http://www.w3.org/2000/svg" viewBox="0 0 995.8 325.2"><defs><style>.cls-1{fill:#de5959;}.cls-2{fill:none;stroke:#de5959;stroke-miterlimit:10;stroke-width:1.98px;}</style></defs><title>资源 1</title><g id="图层_2" data-name="图层 2"><g id="图层_1-2" data-name="图层 1"><path class="cls-1" d="M811.61,145.24h0a13.61,13.61,0,0,0-13.54,13.45q0,8.33,8.41,13c6.14,1.67,11.07.58,14.78-3.22a13.12,13.12,0,0,0,4-9.64,12.76,12.76,0,0,0-4-9.56A13.18,13.18,0,0,0,811.61,145.24Z"/><path class="cls-1" d="M593.78,42.15H583.64a7.91,7.91,0,0,0-7.84,7.93v5.63Q559.62,39,539.28,38.93c-15.76,0-28.86,5.8-39.28,17.52s-15.67,26.18-15.67,43.7c0,17.8,5.16,32.64,15.67,44.54,10.52,11.61,23.79,17.52,39.93,17.52,12.82,0,24.71-5.26,35.87-15.68v11.16a9.79,9.79,0,0,0,9.77,9.86h17.25V51.19A9.06,9.06,0,0,0,593.78,42.15Zm-25.54,85.66c-6.18,6.83-14.2,10.24-24.16,10.24a29.2,29.2,0,0,1-23.24-10.61c-6-7-9-16.13-9-27.29,0-10.51,3.13-19.27,9.22-26.37a29.93,29.93,0,0,1,23.23-10.51c9.87,0,17.8,3.41,24,10.42s9.22,16.13,9.22,27S574.41,120.71,568.24,127.81Z"/><polygon class="cls-1" points="568.24 127.79 568.24 127.79 568.24 127.79 568.24 127.79"/><path class="cls-1" d="M484.33,50.36a8.14,8.14,0,0,0-8.21-8.11h-10.6a8.14,8.14,0,0,0-8.21,8.11v5a47.06,47.06,0,0,0-36.6-16.41c-16.79,0-30.25,6.36-40.48,18.9-9.5,11.89-14.3,26.37-14.3,43.34,0,17.51,5.17,32.08,15.4,43.7s23.15,17.25,39,17.25q20.88,0,37-16.33V162c0,24.25-9.77,36.33-29.5,36.33-10.7,0-18.91-3.59-24.44-10.88a24.36,24.36,0,0,1-3.59-6.91,9.54,9.54,0,0,0-9-6.46H380.59a8,8,0,0,0-7.74,10A49.67,49.67,0,0,0,389.08,210c10.05,8.39,22.87,12.54,38.45,12.54,18.44,0,32.92-6.09,43.52-18.16a50.31,50.31,0,0,0,11.25-22.69,95.27,95.27,0,0,0,1.47-11.06c.37-4.15.56-9,.56-14.57V139.16Q473,122.84,473,100.15c0-14.85,3.78-27.57,11.34-38.27Zm-34.21,76.53c-5.9,7.47-14.11,11.16-24.44,11.16s-18.34-3.69-24.15-11.16q-8-10.1-8-26c0-10.79,2.68-19.64,8-26.37,5.9-7.56,14-11.35,24.15-11.35,9.59,0,17.52,3.42,23.61,10.33s9.13,15.86,9.13,27.2C458.42,111.31,455.65,120.07,450.12,126.89Z"/><polygon class="cls-1" points="450.16 126.87 450.16 126.87 450.16 126.87 450.16 126.87"/><path class="cls-1" d="M708.26,42.27h0v-.09H652.39V8a8,8,0,0,0-8-8H633.52a8.06,8.06,0,0,0-8.06,8.06V42.18H614V67.31h11.49V167.52h15.37A11.55,11.55,0,0,0,652.38,156V67.33H680a56.45,56.45,0,0,1,8-11.54A49.83,49.83,0,0,1,708.26,42.27Z"/><path class="cls-1" d="M845.76,0a16.81,16.81,0,0,0-12.32,5.16,16.74,16.74,0,0,0-5.16,12.21A17.13,17.13,0,0,0,833.44,30a17,17,0,0,0,12.46,5.14,16.47,16.47,0,0,0,12.31-5.15,17,17,0,0,0,5.17-12.45,16.52,16.52,0,0,0-5.16-12.32A16.94,16.94,0,0,0,845.76,0Z"/><path class="cls-1" d="M851.21,55.38h-9.76a9.09,9.09,0,0,0-9.09,9.09V150a12.71,12.71,0,0,1,3,8.57,12.89,12.89,0,0,1-3,8.62V172H849.7a9.61,9.61,0,0,0,9.61-9.63V63.44A8.08,8.08,0,0,0,851.21,55.38Z"/><path class="cls-1" d="M977.82,71.94Q959.7,54.09,933.56,54.05c-17.33,0-32.08,5.9-44.07,17.7s-18.07,26.19-18.07,43.06q0,26.83,17.7,44.54,17.7,18,44,18c17.62,0,32.46-5.9,44.63-17.61,12.08-11.9,18.07-26.47,18.07-44C995.8,98.4,989.81,83.92,977.82,71.94Zm-19,71.09c-6.36,6.82-14.75,10.14-25.27,10.14s-18.9-3.41-25.26-10.23-9.41-16-9.41-27.67c0-10.88,3.23-19.73,9.59-26.55s14.76-10.33,25.08-10.33,18.81,3.41,25.27,10.33q9.4,10.09,9.4,27.11C968.23,127.17,965.1,136.2,958.83,143Z"/><path class="cls-1" d="M792.76,147.45c-15.21-.37-51.82-.73-53.29-.73-8.58,0-15.68-2.77-21.12-8.4-5.62-5.62-8.67-13.27-9.4-22.86h77.17a6.48,6.48,0,0,0,6.55-6.36c0-19.28-5-34.31-14.84-45.1-10.06-11-23.61-16.41-40.76-16.41q-25.46,0-40.94,16.88-15.36,17.15-15.31,44.81T696.59,154a51.92,51.92,0,0,0,27.11,15.31,57.6,57.6,0,0,0,13.83,1.47c14.75.37,28,.65,42.14.92h.09l12.82.28v-2.77a12.69,12.69,0,0,1-3.32-7,18.45,18.45,0,0,1-.18-2.22,13,13,0,0,1,3.59-9.13Zm-78.19-63a25.08,25.08,0,0,1,6.09-6.74,24.23,24.23,0,0,1,7.83-4.33,27.39,27.39,0,0,1,9.22-1.47c14.3,0,23.43,7.1,27.21,21.48H710.7A32.66,32.66,0,0,1,714.57,84.48Z"/><path class="cls-1" d="M126.84,160.77,124,158a3.39,3.39,0,0,0-5.77,2.39v40.31a3.38,3.38,0,0,0,3.39,3.37H162a3.37,3.37,0,0,0,2.39-5.76,3.37,3.37,0,0,1,0-4.77l42.88-43a3.39,3.39,0,0,0,0-4.77l-3.91-3.89a3.38,3.38,0,0,1,2.39-5.76H246a3.38,3.38,0,0,1,3.38,3.37v40.31a3.39,3.39,0,0,1-5.78,2.39l-2.72-2.72a3.3,3.3,0,0,0-4.76,0l-72.29,72.26a3.4,3.4,0,0,1-4.78,0L70.61,163.23a3.38,3.38,0,0,1,0-4.77h0L193.05,36a3.4,3.4,0,0,0,0-4.78L164.26,2.44a3.41,3.41,0,0,0-4.79,0L1,161a3.38,3.38,0,0,0,0,4.78L159.47,324.22a3.41,3.41,0,0,0,4.79,0L322.74,165.73a3.39,3.39,0,0,0,0-4.77L229.5,67.72a3.39,3.39,0,0,0-4.77,0l-93.1,93.06a3.38,3.38,0,0,1-4.77,0l0,0Z"/><line class="cls-2" x1="995.8" y1="248.11" x2="804.08" y2="248.11"/><line class="cls-2" x1="555.03" y1="249.1" x2="363.3" y2="249.1"/><path class="cls-1" d="M664.12,260.86v22.95a5.48,5.48,0,0,1-5.67,5.67,6,6,0,0,1-5.45-5.67c-5.41,4.53-11.52,6-19,5.61-12.15-.61-24.1-10.73-26.09-22.74a28.65,28.65,0,0,1,33-33.41C654.39,235.34,664.12,247.26,664.12,260.86Zm-12,6.56c4.32-13.71-7.37-27.13-21.59-22.46a17.16,17.16,0,0,0-10.91,10.9c-4.66,14.23,8.75,25.92,22.47,21.6A15.38,15.38,0,0,0,652.09,267.42Z"/><path class="cls-1" d="M726.61,253.27a28.48,28.48,0,1,1-55.92,7.64V210a5.62,5.62,0,0,1,11.23-.22v28.45a28.71,28.71,0,0,1,25.51-4.6A27.83,27.83,0,0,1,726.61,253.27Zm-11.49,1a16.69,16.69,0,0,0-11.17-10,17.26,17.26,0,0,0-22,16.47v.5a16.53,16.53,0,0,0,9.68,15.22A17.36,17.36,0,0,0,715.12,254.31Z"/><path class="cls-1" d="M670.76,238.07h11.08a0,0,0,0,1,0,0V279a10.59,10.59,0,0,1-10.59,10.59h-.49a0,0,0,0,1,0,0V238.07A0,0,0,0,1,670.76,238.07Z"/><path class="cls-1" d="M600.41,277.54V204.83H589.33v73.41a11.35,11.35,0,0,0,11.35,11.34h6.8a.13.13,0,0,0,.13-.14V278h-6.8A.4.4,0,0,1,600.41,277.54Z"/><path class="cls-1" d="M751.11,289.81a19.24,19.24,0,0,1-7.06-1.23,27.83,27.83,0,0,1-6.49-2.91c-.41-.26-.81-.52-1.19-.8s-.88-.66-1.26-1a23,23,0,0,1-4.21-4.38l-.16-.2a4.65,4.65,0,0,1,3.68-7.56,4.58,4.58,0,0,1,1.42.22l0,0H736a3,3,0,0,1,1.62,1,25.21,25.21,0,0,0,3,2.61,18,18,0,0,0,10.92,3.82,10.53,10.53,0,0,0,6.65-2.05,5.42,5.42,0,0,0,2-3.71,6.09,6.09,0,0,0-.49-3.26,5.45,5.45,0,0,0-2-2.1,18.74,18.74,0,0,0-3.66-1.84c-1.51-.59-3.47-1.25-5.84-1.95a60.49,60.49,0,0,1-7.45-2.58,17.89,17.89,0,0,1-5-3.13,11.26,11.26,0,0,1-2.88-4.27,17.19,17.19,0,0,1-.95-6.05,14.29,14.29,0,0,1,5.67-11.7,19.13,19.13,0,0,1,6.23-3.14,26.31,26.31,0,0,1,7.56-1.07,31.14,31.14,0,0,1,7,.73,26.56,26.56,0,0,1,12,6.31l0,0,0,0a6.94,6.94,0,0,1,.95,1,5.54,5.54,0,0,1,1.37,3.57v.2a5.67,5.67,0,0,1-5.23,5.44l-.4,0a5.6,5.6,0,0,1-2.55-.61,2.74,2.74,0,0,1-.34-.19,5.48,5.48,0,0,1-1.13-.89l0,0L763,248a17.39,17.39,0,0,0-11.42-5.21l-.67,0a10,10,0,0,0-4.59,1.13,4.55,4.55,0,0,0-2.56,4.38,4.46,4.46,0,0,0,.61,2.39,5,5,0,0,0,2.11,1.73,28.88,28.88,0,0,0,3.57,1.43c1.42.49,3.27,1.05,5.51,1.68a58,58,0,0,1,6.6,2.38,20.45,20.45,0,0,1,5.28,3.24,13.41,13.41,0,0,1,3.45,4.66,16.22,16.22,0,0,1,1.26,6.7,14.53,14.53,0,0,1-1.81,7.23,17.29,17.29,0,0,1-4.8,5.45,23.16,23.16,0,0,1-6.77,3.46A24.54,24.54,0,0,1,751.11,289.81Z"/></g></g></svg>