<?xml version="1.0" standalone="no"?><!DOCTYPE svg PUBLIC "-//W3C//DTD SVG 1.1//EN" "http://www.w3.org/Graphics/SVG/1.1/DTD/svg11.dtd"><svg class="icon" width="200px" height="200.00px" viewBox="0 0 1024 1024" version="1.1" xmlns="http://www.w3.org/2000/svg"><path d="M512 960C264.961 960 64 759.039 64 512S264.961 64 512 64s448 200.961 448 448S759.039 960 512 960zM512 896c211.744 0 384-172.256 384-384S723.744 128 512 128 128 300.256 128 512 300.256 896 512 896z"  /><path d="M535.971 661.728l158.496-160.255c6.145-6.241 9.248-14.369 9.248-22.497 0-8.255-3.169-16.512-9.504-22.751-12.576-12.416-32.801-12.32-45.248 0.256L513.058 593.888 376.386 457.6c-12.513-12.48-32.768-12.449-45.248 0.064-12.513 12.513-12.449 32.768 0.064 45.248l159.359 158.912c0.033 0.031 0.064 0.031 0.096 0.064 0.031 0.033 0.031 0.064 0.064 0.096 2.976 2.943 6.432 5.056 10.048 6.592 0.127 0.064 0.256 0.224 0.384 0.256C512.767 673.601 526.592 671.232 535.971 661.728z"  /></svg>