<svg viewBox="0 0 663.04 660.64" width="300" height="300" xmlns="http://www.w3.org/2000/svg"><path fill="#f97316" fill-rule="evenodd" d="M661.87 604.14c-79.26-79.51-153.38-153.91-227.56-228.25-48.07-48.18-95.87-96.63-144.61-144.12-10.76-10.49-10.59-15.94 0-26.36q97.72-96.33 194.07-194.06c8.13-8.21 16.55-11.5 28-11.13 22.67.74 45.43 1.29 68-.12 18.08-1.13 29.4 7.56 43.72 17.25 55.81 37.77 35.35 93.51 38.06 143.9.36 6.68-5.91 10.16-10.11 14.37-28.28 28.37-57 56.31-84.69 85.24-9.14 9.54-15.08 12.2-24.66.78-12.54-14.95-36.16-27.82-37.4-43-1.28-15.81 23.82-28.3 37.25-42.35 17.75-18.57 35.78-36.92 54.57-54.42 8.91-8.29 8.87-13.93-.15-21.5-16.12-13.54-28-39.87-46.2-40.59-16.75-.66-29.61 24.87-44 39-34.54 33.88-67.9 69-103 102.25-13.62 12.9-16 19.79-.9 34.59C484.4 315.9 565 397.83 646.69 478.67c11.08 11 16.24 21.88 15.52 37.6-1.21 26.95-.34 53.99-.34 87.87zM8.08 59.33C19 71.43 29.52 84 41 95.55q165 165.39 330.52 330.17c12.84 12.72 12.36 19.2-.23 31.51-64.89 63.33-128.9 127.56-192.87 191.83-7.51 7.54-14.94 11.14-25.69 10.62-17.34-.85-35-2.11-52.09.19-29.89 4-50.11-8-70.94-28.76C9.31 610.75 3.55 590.06.87 562.14-4 511.37 11.19 473.7 51.44 443.38c17.35-13.07 31.78-30.15 46.74-46.15 7.43-8 12-9.62 21.09-1.2 46.36 43.12 46.64 42.84 2.09 87.36-18.17 18.16-36.18 36.5-54.69 54.31-7.38 7.11-9 12.22-.24 19.87a338 338 0 0135.25 35.24c9.68 11.44 15.48 8.57 24.69-.84 45.44-46.45 91.22-92.59 137.84-137.84 11-10.68 10.5-15.94 0-26.37C180.9 345.34 98.44 262.11 15.24 179.63c-9.36-9.28-13.8-18.31-13.37-31.54.89-27.93.27-55.91.27-83.88zm589.97 600.16c-30.14 0-60.28-.31-90.41.18-9.12.15-15.32-3-21.6-9.41C456 619.52 425.71 589 394.89 559c-8.31-8.07-9.49-13.51-.44-21.51 15.17-13.44 28.62-36.87 44.71-38.64 12.53-1.38 28.17 23.6 42.08 37.22q60.3 59 120.32 118.35zM58.51.44c38.58 0 70 .18 101.34-.13 7.81-.07 12.33 4.32 17.15 9.18 30.85 31 61.59 62.07 92.84 92.65 7.25 7.08 9.74 11.51.61 19.33-12.55 10.76-24.07 22.81-35.3 35-6.86 7.43-11.48 9.19-19.67.9C165.21 106.48 114.38 56.15 58.51.44z"></path></svg>