<svg width="272" height="223" viewBox="0 0 272 223" fill="none" xmlns="http://www.w3.org/2000/svg">
<path d="M9.47578 185.225V218.098C9.47578 220.308 9.23977 221.606 8.76775 221.99C8.34293 222.327 6.87967 222.495 4.37797 222.495H2.82031V170.592H4.44878C6.71447 170.592 8.13052 170.76 8.69695 171.096C9.26337 171.433 9.995 172.586 10.8918 174.556L18.6093 192.506H20.0254L29.513 170.592H30.575C33.1239 170.592 34.6108 170.784 35.0356 171.168C35.5076 171.505 35.7436 172.778 35.7436 174.989V222.495H34.186C31.6371 222.495 30.1502 222.327 29.7254 221.99C29.3006 221.606 29.0882 220.308 29.0882 218.098L29.0174 185.298H28.8049L23.5655 198.201L21.6539 201.806H16.9809L15.0692 198.201L9.68819 185.225H9.47578Z" fill="#171717"/>
<path d="M65.457 216.079V222.495H43.2249V170.592H64.749V176.719H49.5264L50.1636 178.521V189.551L49.5264 191.353H63.8994V197.769H49.5972L50.1636 199.427V214.277L49.5264 216.079H65.457Z" fill="#171717"/>
<path d="M91.8875 176.719H83.2495L83.8868 178.521V218.098C83.8868 220.308 83.6508 221.606 83.1787 221.99C82.7539 222.327 81.2671 222.495 78.7182 222.495H77.0189V178.521L77.5145 176.719H69.0182V170.592H91.8875V176.719Z" fill="#171717"/>
<path d="M119.776 222.495C117.369 222.495 115.906 222.303 115.386 221.918C114.914 221.534 114.466 220.26 114.041 218.098L111.634 205.915H102.713L99.8097 222.495H98.1812C95.9155 222.495 94.4759 222.375 93.8622 222.135C93.2486 221.846 92.9418 221.221 92.9418 220.26C92.9418 219.251 96.5291 202.695 103.704 170.592H110.501L122.113 222.495H119.776ZM106.748 183.712L104.129 197.769L103.562 198.994H110.855C110.808 198.946 110.69 198.73 110.501 198.346C110.312 197.913 110.218 197.673 110.218 197.625L107.456 183.712H106.748Z" fill="#171717"/>
<path d="M126.371 215.358C131.091 215.839 134.537 216.079 136.708 216.079C138.88 216.079 140.367 215.911 141.169 215.575C142.019 215.238 142.656 214.854 143.081 214.421C143.506 213.941 143.812 213.244 144.001 212.331C144.237 211.177 144.355 209.759 144.355 208.077C144.355 206.395 143.954 204.93 143.152 203.68C142.349 202.43 141.594 201.493 140.886 200.869C140.225 200.244 138.998 199.138 137.204 197.553C135.41 195.967 134.136 194.837 133.381 194.164C132.673 193.444 131.658 192.338 130.336 190.848C127.929 188.157 126.725 185.346 126.725 182.414C126.725 177.32 127.244 174.196 128.283 173.043C129.888 171.361 131.611 170.399 133.452 170.159C135.292 169.871 137.251 169.727 139.328 169.727L148.957 171.817C148.58 174.556 148.037 176.166 147.329 176.647C146.998 176.935 146.408 177.08 145.559 177.08C144.756 177.08 143.694 176.935 142.373 176.647L139.682 176.142C136.897 176.142 135.198 176.719 134.584 177.873C134.207 178.497 133.971 179.074 133.876 179.603C133.829 180.131 133.806 180.924 133.806 181.982C133.806 183.952 136.189 186.98 140.957 191.065C143.222 192.891 144.992 194.429 146.267 195.678C147.541 196.928 148.745 198.442 149.878 200.22C151.011 201.998 151.577 203.68 151.577 205.266C151.577 206.852 151.553 208.077 151.506 208.942C151.506 209.759 151.412 210.913 151.223 212.403C151.081 213.844 150.845 214.974 150.515 215.791C150.185 216.608 149.689 217.545 149.028 218.602C148.367 219.66 147.565 220.452 146.621 220.981C144.214 222.327 141.334 223 137.983 223C136.095 223 133.9 222.783 131.398 222.351C128.897 221.87 127.221 221.582 126.371 221.486V215.358Z" fill="#171717"/>
<path d="M180.857 216.079V222.495H158.625V170.592H180.149V176.719H164.927L165.564 178.521V189.551L164.927 191.353H179.3V197.769H164.997L165.564 199.427V214.277L164.927 216.079H180.857Z" fill="#171717"/>
<path d="M203.96 206.636V170.592H205.518C208.067 170.592 209.553 170.784 209.978 171.168C210.403 171.505 210.616 172.778 210.616 174.989V222.495H208.491C206.131 222.495 204.668 222.327 204.102 221.99C203.535 221.606 202.922 220.428 202.261 218.458L193.127 187.316H192.773V218.098C192.773 220.308 192.561 221.606 192.136 221.99C191.711 222.327 190.224 222.495 187.675 222.495H186.189V170.592H187.746C190.059 170.592 191.475 170.76 191.994 171.096C192.514 171.433 193.151 172.61 193.906 174.629L203.606 206.636H203.96Z" fill="#171717"/>
<path d="M216.672 215.358C221.393 215.839 224.838 216.079 227.01 216.079C229.181 216.079 230.668 215.911 231.47 215.575C232.32 215.238 232.957 214.854 233.382 214.421C233.807 213.941 234.114 213.244 234.302 212.331C234.538 211.177 234.656 209.759 234.656 208.077C234.656 206.395 234.255 204.93 233.453 203.68C232.65 202.43 231.895 201.493 231.187 200.869C230.526 200.244 229.299 199.138 227.505 197.553C225.712 195.967 224.437 194.837 223.682 194.164C222.974 193.444 221.959 192.338 220.637 190.848C218.23 188.157 217.026 185.346 217.026 182.414C217.026 177.32 217.546 174.196 218.584 173.043C220.189 171.361 221.912 170.399 223.753 170.159C225.594 169.871 227.553 169.727 229.629 169.727L239.259 171.817C238.881 174.556 238.338 176.166 237.63 176.647C237.3 176.935 236.71 177.08 235.86 177.08C235.058 177.08 233.996 176.935 232.674 176.647L229.983 176.142C227.199 176.142 225.499 176.719 224.886 177.873C224.508 178.497 224.272 179.074 224.178 179.603C224.13 180.131 224.107 180.924 224.107 181.982C224.107 183.952 226.49 186.98 231.258 191.065C233.524 192.891 235.294 194.429 236.568 195.678C237.843 196.928 239.046 198.442 240.179 200.22C241.312 201.998 241.878 203.68 241.878 205.266C241.878 206.852 241.855 208.077 241.807 208.942C241.807 209.759 241.713 210.913 241.524 212.403C241.383 213.844 241.147 214.974 240.816 215.791C240.486 216.608 239.99 217.545 239.329 218.602C238.669 219.66 237.866 220.452 236.922 220.981C234.515 222.327 231.635 223 228.284 223C226.396 223 224.201 222.783 221.699 222.351C219.198 221.87 217.522 221.582 216.672 221.486V215.358Z" fill="#171717"/>
<path d="M271.159 216.079V222.495H248.926V170.592H270.451V176.719H255.228L255.865 178.521V189.551L255.228 191.353H269.601V197.769H255.299L255.865 199.427V214.277L255.228 216.079H271.159Z" fill="#171717"/>
<path d="M136.121 43.082L136.107 43.1394L115.878 66.6507L115.732 66.586C115.761 66.6183 115.791 66.6507 115.82 66.683C113.532 69.2289 111.08 71.8886 108.517 74.5719C101.84 81.5618 94.8337 88.2605 88.3067 93.454C85.0635 96.0347 82.2421 97.9998 79.9039 99.3829C78.7545 100.063 77.836 100.534 77.1453 100.847C76.4833 101.148 76.1529 101.247 76.1328 101.253C76.1319 101.254 76.1316 101.254 76.1328 101.253C73.0961 102.102 69.8652 102.566 66.4769 102.566C46.7077 102.566 30.6816 86.5006 30.6816 66.683C30.6816 46.8653 46.7077 30.7999 66.4769 30.7999C69.8653 30.7999 73.0957 31.2634 76.1323 32.1124C76.1162 32.1078 76.4454 32.201 77.1453 32.5186C77.836 32.8319 78.7545 33.3032 79.904 33.9831C82.2421 35.3661 85.0635 37.3312 88.3067 39.9119C93.5201 44.0602 99.0395 49.1688 104.452 54.619L124.617 31.3403C111.477 18.3036 96.4759 5.86921 84.3745 2.486C78.6802 0.894034 72.6777 0.0429688 66.4769 0.0429688C29.7627 0.0429688 0 29.8787 0 66.683C0 103.487 29.7627 133.323 66.4769 133.323C72.6777 133.323 78.6802 132.472 84.3745 130.88C100.159 126.467 120.877 106.655 135.962 90.1934L135.96 90.1912L156.195 66.6629L156.2 66.6607C158.482 64.1216 160.927 61.4695 163.483 58.794C170.16 51.8041 177.166 45.1055 183.693 39.9119C186.936 37.3312 189.758 35.3661 192.096 33.9831C193.245 33.3032 194.164 32.8319 194.855 32.5186C195.555 32.201 195.884 32.1078 195.868 32.1124C198.904 31.2634 202.135 30.7999 205.523 30.7999C225.292 30.7999 241.318 46.8653 241.318 66.683C241.318 86.5007 225.292 102.566 205.523 102.566C202.135 102.566 198.904 102.102 195.867 101.253C195.847 101.247 195.517 101.148 194.855 100.847C194.164 100.534 193.245 100.063 192.096 99.3829C189.758 97.9998 186.936 96.0347 183.693 93.454C178.393 89.2369 172.777 84.0274 167.278 78.4754L147.268 101.912C160.435 114.99 175.489 127.487 187.625 130.88C193.32 132.472 199.322 133.323 205.523 133.323C242.237 133.323 272 103.487 272 66.683C272 29.8787 242.237 0.0429688 205.523 0.0429688C199.322 0.0429688 193.32 0.894041 187.625 2.48601C171.87 6.89079 151.199 26.6381 136.121 43.082Z" fill="white"/>
<path d="M136.121 43.082L136.107 43.1394L115.878 66.6507L115.732 66.586C115.761 66.6183 115.791 66.6507 115.82 66.683C113.532 69.2289 111.08 71.8886 108.517 74.5719C101.84 81.5618 94.8337 88.2605 88.3067 93.454C85.0635 96.0347 82.2421 97.9998 79.9039 99.3829C78.7545 100.063 77.836 100.534 77.1453 100.847C76.4833 101.148 76.1529 101.247 76.1328 101.253C76.1319 101.254 76.1316 101.254 76.1328 101.253C73.0961 102.102 69.8652 102.566 66.4769 102.566C46.7077 102.566 30.6816 86.5006 30.6816 66.683C30.6816 46.8653 46.7077 30.7999 66.4769 30.7999C69.8653 30.7999 73.0957 31.2634 76.1323 32.1124C76.1162 32.1078 76.4454 32.201 77.1453 32.5186C77.836 32.8319 78.7545 33.3032 79.904 33.9831C82.2421 35.3661 85.0635 37.3312 88.3067 39.9119C93.5201 44.0602 99.0395 49.1688 104.452 54.619L124.617 31.3403C111.477 18.3036 96.4759 5.86921 84.3745 2.486C78.6802 0.894034 72.6777 0.0429688 66.4769 0.0429688C29.7627 0.0429688 0 29.8787 0 66.683C0 103.487 29.7627 133.323 66.4769 133.323C72.6777 133.323 78.6802 132.472 84.3745 130.88C100.159 126.467 120.877 106.655 135.962 90.1934L135.96 90.1912L156.195 66.6629L156.2 66.6607C158.482 64.1216 160.927 61.4695 163.483 58.794C170.16 51.8041 177.166 45.1055 183.693 39.9119C186.936 37.3312 189.758 35.3661 192.096 33.9831C193.245 33.3032 194.164 32.8319 194.855 32.5186C195.555 32.201 195.884 32.1078 195.868 32.1124C198.904 31.2634 202.135 30.7999 205.523 30.7999C225.292 30.7999 241.318 46.8653 241.318 66.683C241.318 86.5007 225.292 102.566 205.523 102.566C202.135 102.566 198.904 102.102 195.867 101.253C195.847 101.247 195.517 101.148 194.855 100.847C194.164 100.534 193.245 100.063 192.096 99.3829C189.758 97.9998 186.936 96.0347 183.693 93.454C178.393 89.2369 172.777 84.0274 167.278 78.4754L147.268 101.912C160.435 114.99 175.489 127.487 187.625 130.88C193.32 132.472 199.322 133.323 205.523 133.323C242.237 133.323 272 103.487 272 66.683C272 29.8787 242.237 0.0429688 205.523 0.0429688C199.322 0.0429688 193.32 0.894041 187.625 2.48601C171.87 6.89079 151.199 26.6381 136.121 43.082Z" fill="url(#paint0_linear_6978_6141)"/>
<defs>
<linearGradient id="paint0_linear_6978_6141" x1="-2.39658e-06" y1="20.5476" x2="247.627" y2="136.722" gradientUnits="userSpaceOnUse">
<stop stop-color="#42ECCE"/>
<stop offset="0.499255" stop-color="#AB42EC"/>
<stop offset="1" stop-color="#337FF1"/>
</linearGradient>
</defs>
</svg>
