<svg xmlns="http://www.w3.org/2000/svg" viewBox="0 0 29.61 28.84"><defs><style>.cls-1{fill:#fe4905;}</style></defs><title>资源 540</title><g id="图层_2" data-name="图层 2"><g id="图层_1-2" data-name="图层 1"><path class="cls-1" d="M14.81,0A14.8,14.8,0,0,0,9.92,28.78c.77.2.66-.36.66-.74V25.48C6.09,26,5.91,23,5.6,22.54c-.61-1-2-1.31-1.62-1.8,1-.53,2.07.13,3.27,1.92.88,1.29,2.58,1.07,3.45.85a4.18,4.18,0,0,1,1.14-2c-4.65-.83-6.59-3.67-6.59-7a6.55,6.55,0,0,1,1.6-4.35,5.86,5.86,0,0,1,.16-4C8.94,6,10.93,7.5,11.09,7.62a14.55,14.55,0,0,1,3.73-.45,14.34,14.34,0,0,1,3.76.46,6.65,6.65,0,0,1,4-1.45,5.89,5.89,0,0,1,.18,3.9,6.54,6.54,0,0,1,1.62,4.38c0,3.38-1.95,6.23-6.62,7.05a4.2,4.2,0,0,1,1.26,3v3.72c0,.3,0,.6.5.6A14.81,14.81,0,0,0,14.81,0Z"/></g></g></svg>