<svg xmlns="http://www.w3.org/2000/svg" viewBox="0 0 28.84 28.84"><defs><style>.cls-1{fill:#fff;}</style></defs><title>资源 533</title><g id="图层_2" data-name="图层 2"><g id="图层_1-2" data-name="图层 1"><path class="cls-1" d="M14.42,0A14.42,14.42,0,1,0,28.84,14.42,14.43,14.43,0,0,0,14.42,0Zm6.72,9.16h0L18.65,20.88c-.18.82-.67,1-1.37.64L13.5,18.74l-1.83,1.75a1,1,0,0,1-.76.37L11.18,17l7-6.33c.31-.28-.07-.43-.47-.16L9.05,16,5.32,14.81c-.81-.26-.83-.82.17-1.2L20.09,8C20.76,7.72,21.36,8.13,21.14,9.16Z"/></g></g></svg>