<svg xmlns="http://www.w3.org/2000/svg" viewBox="0 0 28.84 28.84"><defs><style>.cls-1{fill:#fff;}</style></defs><title>资源 532</title><g id="图层_2" data-name="图层 2"><g id="图层_1-2" data-name="图层 1"><path class="cls-1" d="M14.42,0A14.42,14.42,0,1,0,28.84,14.42,14.39,14.39,0,0,0,14.42,0Zm7,10.32c-.11.11-.11.22-.22.22a2.48,2.48,0,0,1-.67.44c-.11,0-.11.11-.11.22a8.36,8.36,0,0,1-.56,3.66,8.87,8.87,0,0,1-4.43,4.77,7.31,7.31,0,0,1-5.44.89,5.35,5.35,0,0,1-2.33-.89l-.11-.11a.24.24,0,0,1,.22-.22A4.51,4.51,0,0,0,9.43,19,7.12,7.12,0,0,0,11,18.08l.11-.11c0-.11,0-.22-.11-.22a3.51,3.51,0,0,1-1.11-.56,2.46,2.46,0,0,1-1-1.11V16a.24.24,0,0,1,.23-.22h.33c.11,0,.11,0,.11-.11s0-.22-.11-.33a4.44,4.44,0,0,1-1.11-.89,2.21,2.21,0,0,1-.67-1.55v-.11c0-.12.23-.12.23-.12s.22.12.33.12h.22c.11,0,.11,0,.22-.12a.21.21,0,0,0,0-.33,3.14,3.14,0,0,1-.89-1.66A3.25,3.25,0,0,1,8,8.87V8.76c-.23.11-.11.11,0,.22a10.9,10.9,0,0,0,2.55,2,7.94,7.94,0,0,0,3.55.89.24.24,0,0,0,.22-.22c0-.67.22-2.89,2.22-3.44a2.82,2.82,0,0,1,3,.77.38.38,0,0,0,.22.12c.23,0,.45-.12.78-.12s.44-.11.67-.22h.22c.11,0,.11.22.11.34a2.73,2.73,0,0,1-.56.66l-.11.11c-.11,0-.11.11-.11.22a.25.25,0,0,0,.22.23.8.8,0,0,0,.45-.12h.22c-.11-.11-.11.12-.22.12Z"/></g></g></svg>