<svg xmlns="http://www.w3.org/2000/svg" viewBox="0 0 28.07 28.07"><defs><style>.cls-1{fill:#fe4905;}</style></defs><title>资源 543</title><g id="图层_2" data-name="图层 2"><g id="图层_1-2" data-name="图层 1"><path class="cls-1" d="M17.22,13a1.7,1.7,0,0,0,0,3.4,1.61,1.61,0,0,0,1.61-1.7A1.66,1.66,0,0,0,17.22,13Z"/><path class="cls-1" d="M11.54,13a1.7,1.7,0,0,0,0,3.4,1.7,1.7,0,0,0,0-3.4Z"/><path class="cls-1" d="M14,0h0A14,14,0,0,0,0,14H0A14,14,0,1,0,14,0Zm4.89,20.13-1-1.3a5.85,5.85,0,0,0,2.7-1.8,12.82,12.82,0,0,1-5.8,1.7h-.6A11.46,11.46,0,0,1,8.44,17a5.74,5.74,0,0,0,2.69,1.79l-1,1.31a5.85,5.85,0,0,1-4.8-2.3,19.36,19.36,0,0,1,2.2-9,7.26,7.26,0,0,1,4.4-1.59l.19.19A10.14,10.14,0,0,0,8,9.44a13.72,13.72,0,0,1,6.09-1.5h.6a13,13,0,0,1,6.1,1.5,10.08,10.08,0,0,0-4.1-2l.2-.2a6.57,6.57,0,0,1,4.39,1.6h0a20.9,20.9,0,0,1,2.4,9A6.14,6.14,0,0,1,18.93,20.13Z"/></g></g></svg>