<svg xmlns="http://www.w3.org/2000/svg" viewBox="0 0 28.33 28.33"><defs><style>.cls-1{fill:#fe4905;}</style></defs><title>资源 536</title><g id="图层_2" data-name="图层 2"><g id="图层_1-2" data-name="图层 1"><path class="cls-1" d="M14.17,0A14.17,14.17,0,1,0,28.33,14.16,14.16,14.16,0,0,0,14.17,0Zm-4,20.09H7.44V11.25H10.2ZM8.75,10.15h0a1.54,1.54,0,1,1,0-3.07,1.54,1.54,0,1,1,0,3.07Zm12.5,9.94H18.12V15.52c0-1.2-.49-2-1.57-2a1.57,1.57,0,0,0-1.49,1.09,2,2,0,0,0-.07.72v4.78h-3.1s0-8.1,0-8.84H15v1.39a2.81,2.81,0,0,1,2.75-1.47c2,0,3.51,1.27,3.51,4Z"/></g></g></svg>