<svg xmlns="http://www.w3.org/2000/svg" viewBox="0 0 28.58 28.58"><defs><style>.cls-1{fill:#fe4905;}</style></defs><title>77</title><g id="图层_2" data-name="图层 2"><g id="图层_1-2" data-name="图层 1"><path class="cls-1" d="M21.84,17.69c-.3,1.12-.67,1.66-1.7,1.86,0,0-2.67.2-5.46.2-3.07,0-6.3-.2-6.3-.2-1.05-.13-1.53-.81-1.76-1.86a25,25,0,0,1-.3-3.58,23.21,23.21,0,0,1,.3-3.46c.3-1.07.58-1.73,1.75-1.86,0,0,2.91-.16,5.84-.16s5.93.16,5.93.16c1.11.13,1.37.74,1.7,1.86a26.79,26.79,0,0,1,.3,3.68,21.4,21.4,0,0,1-.3,3.36M14.29,0A14.29,14.29,0,1,0,28.58,14.29,14.28,14.28,0,0,0,14.29,0"/><path class="cls-1" d="M12.55,17l4.57-3-4.57-3Z"/></g></g></svg>